<?xml version="1.0" encoding="UTF-8"?>
<svg id="_レイヤー_1" xmlns="http://www.w3.org/2000/svg" version="1.1" viewBox="0 0 900 450">
  <!-- Generator: Adobe Illustrator 29.4.0, SVG Export Plug-In . SVG Version: 2.1.0 Build 152)  -->
  <defs>
    <style>
      .st0 {
        fill: #fff;
      }
    </style>
  </defs>
  <g>
    <path class="st0" d="M274.89,258.23h-58.07l-14.89-46.76h-87.55l-14,46.76h-57.77L121.52,12.84h70.58l82.79,245.39ZM187.04,164.12l-29.78-94.11-28.59,94.11h58.37Z"/>
    <path class="st0" d="M431.54,258.23h-122.1v-47.65h33.06V60.49h-32.76V12.84h121.8v47.65h-33.06v150.09h33.06v47.65h0Z"/>
    <path class="st0" d="M697.47,258.23h-61.64l-30.08-68.79c-6.75-15.68-20.45-23.53-41.1-23.53h-22.04v92.32h-55.99V12.84h115.85c22.43,0,40.9,5.66,55.39,16.97,17.07,13.3,25.61,32.36,25.61,57.18,0,31.17-14.4,52.91-43.18,65.22,9.93,6.36,17.97,16.48,24.12,30.38l33.06,75.64h0ZM625.7,89.67c0-7.15-2.08-13.1-6.25-17.87-5.36-5.96-13.3-8.93-23.82-8.93h-53.01v55.69h53.01c10.52,0,18.46-3.37,23.82-10.13,4.17-5.16,6.25-11.41,6.25-18.76Z"/>
    <path class="st0" d="M857.39,258.23h-122.1v-47.65h33.06V60.49h-32.76V12.84h121.8v47.65h-33.05v150.09h33.05v47.65Z"/>
  </g>
  <path class="st0" d="M176.47,312.78l-18.03,116.97h-29.53l-19.45-71.83-19.45,71.83h-29.38l-18.03-116.97h26.54l10.36,74.95,18.17-69.7h24.56l18.31,69.84,9.23-75.09h26.7Z"/>
  <path class="st0" d="M280.66,429.74h-82.76v-116.97h82.76v23.85h-56.07v21.01h49.26v23.85h-49.26v24.27h56.07v23.99Z"/>
  <path class="st0" d="M401.6,393.83c0,23.94-13.06,35.91-39.18,35.91h-55.79v-116.97h53.66c24.04,0,36.06,10.27,36.06,30.8,0,4.92-1.52,9.8-4.54,14.62-2.84,4.45-6.1,7.57-9.79,9.37,13.06,4.73,19.59,13.49,19.59,26.26h0ZM369.52,347.13c0-7.38-4.78-11.07-14.34-11.07h-22.29v23.28h21.86c4.83,0,8.56-1.28,11.21-3.83,2.36-2.18,3.55-4.97,3.55-8.37h.01ZM373.92,392.69c0-8.33-5.68-12.49-17.03-12.49h-23.99v26.69h24.56c10.98,0,16.47-4.73,16.47-14.19h-.01Z"/>
  <path class="st0" d="M564.41,393.83c0,13.44-5.11,23.42-15.33,29.95-7.76,4.92-17.13,7.38-28.11,7.38-12.78,0-22.81-1.89-30.09-5.68-10.03-5.2-17.32-14.62-21.86-28.25l25.69-7.95c2.93,7.67,6.86,12.92,11.78,15.76,3.5,1.89,8.33,2.84,14.48,2.84,4.54,0,8.18-1.06,10.93-3.19,2.74-2.13,4.12-5.09,4.12-8.87s-2.32-6.96-6.96-9.23c-3.03-1.51-8.57-3.22-16.61-5.11-13.72-3.22-23.09-6.43-28.11-9.65-8.61-5.68-12.92-14.48-12.92-26.4,0-10.13,4.09-18.33,12.28-24.63,8.18-6.29,18.86-9.44,32.01-9.44,23.75,0,39.89,9.32,48.41,27.96l-24.56,8.94c-2.93-5.2-6.44-8.85-10.5-10.93-3.5-1.8-8.33-2.7-14.48-2.7-5.3,0-9.42,1.18-12.35,3.55-2.46,2.08-3.69,4.45-3.69,7.1,0,3.22,1.75,5.73,5.25,7.52,2.18,1.23,6.48,2.6,12.92,4.12,12.58,3.03,19.59,4.78,21.01,5.25,8.23,2.65,14.43,6.1,18.6,10.36,5.39,5.39,8.09,12.49,8.09,21.29h0Z"/>
  <path class="st0" d="M641.91,429.74h-58.2v-22.71h15.76v-71.54h-15.62v-22.71h58.06v22.71h-15.76v71.54h15.76v22.71Z"/>
  <path class="st0" d="M753.63,336.62h-33.5v93.12h-27.54v-93.12h-33.07v-23.85h94.11v23.85Z"/>
  <path class="st0" d="M857.39,429.74h-82.76v-116.97h82.76v23.85h-56.07v21.01h49.26v23.85h-49.26v24.27h56.07v23.99Z"/>
</svg>