<?xml version="1.0" encoding="UTF-8"?>
<svg id="_レイヤー_1" xmlns="http://www.w3.org/2000/svg" version="1.1" viewBox="0 0 1200 1227">
  <!-- Generator: Adobe Illustrator 29.4.0, SVG Export Plug-In . SVG Version: 2.1.0 Build 152)  -->
  <defs>
    <style>
      .st0 {
        fill: #fff;
      }
    </style>
  </defs>
  <path class="st0" d="M846.41,1213.51h-492.8C158.63,1213.51,0,1054.87,0,859.89v-492.79C0,172.12,158.61,13.49,353.59,13.49h492.8c194.97,0,353.6,158.63,353.6,353.6v492.79c0,194.97-158.65,353.62-353.6,353.62h.01ZM353.58,114.53c-139.26,0-252.57,113.31-252.57,252.57v492.79c0,139.28,113.31,252.57,252.57,252.57h492.8c139.26,0,252.57-113.29,252.57-252.57v-492.79c0-139.26-113.31-252.57-252.57-252.57h-492.8,0ZM600,917.58c-167.68,0-304.09-136.39-304.09-304.08s136.41-304.09,304.09-304.09,304.08,136.41,304.08,304.09-136.39,304.08-304.08,304.08h0ZM600,410.44c-111.97,0-203.05,91.1-203.05,203.07s91.08,203.05,203.05,203.05,203.05-91.08,203.05-203.05-91.08-203.07-203.05-203.07ZM908.7,238.99c-37.39,0-67.69,30.31-67.69,67.69s30.3,67.67,67.69,67.67,67.67-30.3,67.67-67.67-30.3-67.69-67.67-67.69h0Z"/>
</svg>