<?xml version="1.0" encoding="UTF-8"?>
<svg id="_レイヤー_1" data-name="レイヤー_1" xmlns="http://www.w3.org/2000/svg" version="1.1" viewBox="0 0 900 900">
  <!-- Generator: Adobe Illustrator 29.4.0, SVG Export Plug-In . SVG Version: 2.1.0 Build 152)  -->
  <defs>
    <style>
      .st0 {
        fill: #f8d5a2;
      }

      .st1 {
        fill: #3c3127;
      }

      .st2 {
        fill: #231815;
      }

      .st3 {
        fill: #ff82b2;
      }

      .st4 {
        fill: #004388;
      }

      .st5 {
        fill: #9c3b24;
      }
    </style>
  </defs>
  <path class="st0" d="M597.54,574.73c16.2-21.9,18.07-37.09,3.5-63.06-19.92-35.5-2.69-47.21,3.99-59.76,0,0,26.1-50.98-10.67-60.66-13.23-3.48-17.72-6.05-19.94-15.84-2.44-10.74-5.21-14.43-15.62-18.04-13.29-4.61-19.96-.49-26.98,1.31-10.93,2.8-21.15,3.7-41.71-3.53-6.51-2.29-13.69-1.34-19.54,2.33-9.08,5.7-25.25,5.58-51.02-1.61-8.83-2.46-18.16-2.09-26.98.44-8.85,2.53-27.7,10.65-57.85-.69-2.79-1.05-5.56-1.68-8.22-1.94,0,0,0,0,0,0-27.4-5.18-29.83,24.31-29.83,24.31l-2.77,17.45c-7.77,38.35-16.42,81.02-17.61,86.58-2.08,9.72-11.32,52.04,57.24,124.49,0,0,0,0,0,0,.79.83,1.6,1.67,2.41,2.51.16.17.32.33.48.5,1.05,1.08,2.11,2.18,3.2,3.27.12.12.24.25.37.37,1.16,1.17,2.34,2.36,3.54,3.55.05.05.09.09.14.14,1.25,1.24,2.52,2.48,3.82,3.74-1.26-1.22-2.49-2.43-3.7-3.63,1.21,1.2,2.45,2.41,3.71,3.63,0,0,0,0,0,0,0,0,0,0,.01.01,49.9,13.64,180.08,44.19,244.53,12.04-6.05-20.72-7.71-40.05,5.52-57.92Z"/>
  <path class="st1" d="M293.91,395.44c-7.77,38.35-16.42,81.02-17.61,86.58-2.08,9.72-11.32,52.04,57.24,124.49,0,0,0,0,0,0,.79.83,1.6,1.67,2.41,2.51.16.17.32.33.48.5,1.05,1.08,2.11,2.18,3.2,3.27.12.12.24.25.37.37,1.16,1.17,2.34,2.36,3.54,3.55.05.05.09.09.14.14,1.25,1.24,2.52,2.48,3.82,3.74,0,0,0,0,.01.01l-22.36-5.99c-4.52,12.82-14.23,38.12-22.02,43.14-10.52,6.78-4.9,21.59-4.38,30.47.07,1.11.25,2.38.52,3.74-13.26-2.29-27.63-7.73-42.23-18.28,0,0,26.35-8.32,17.69-22.77-8.66-14.45-58.15-13.14-54.64-53.42,3.5-40.29,22.33-40.82,17.52-54.57-4.82-13.74-43.79-14.62-35.91-49.65,1.18-5.23,2.83-9.81,4.78-13.88,9.56-19.89,10.3-42.7,4.05-63.86-3.79-12.84-18.13-35.1-9.89-63.84,6.31-20.56,33.3-44.61,44.15-88.36,25.84-104.22,75.82-134.18,141.85-176.72,110.26-71.03,300.25,3.18,353.15,145.83,6.48,17.48.65,38.54,6.6,56.21,5.12,15.21,10.91,17.75,16.69,38.55,6.81,24.49-6.14,48.01-11.82,68.86-12.26,44.94-7.88,44.94,10.34,89.12,18.44,44.72,4.11,63.71-23.04,81.66-27.15,17.95-28.9,38.1-25.4,47.29,3.5,9.2,9.63,37.66-19.27,46.42-28.9,8.76-15.76,51.67-76.2,53.42-60.43,1.75-61.89-24.52-61.89-24.52,0,0,50.07-16.43,40.87-42.59-9.2-26.16-15.33-50.24.88-72.14,16.2-21.9,18.07-37.09,3.5-63.06-19.92-35.5-2.69-47.21,3.99-59.76,0,0,26.1-50.98-10.67-60.66-13.23-3.48-17.72-6.05-19.94-15.84-2.44-10.74-5.21-14.43-15.62-18.04-13.29-4.61-19.96-.49-26.98,1.31-10.93,2.8-21.15,3.7-41.71-3.53-6.51-2.29-13.69-1.34-19.54,2.33-9.08,5.7-25.25,5.58-51.02-1.61-8.83-2.46-18.16-2.09-26.98.44-8.85,2.53-27.7,10.65-57.85-.69-2.79-1.05-5.56-1.68-8.22-1.94,0,0,0,0,0,0-27.4-5.18-29.83,24.31-29.83,24.31l-2.77,17.45Z"/>
  <circle class="st4" cx="541" cy="463.14" r="6.66"/>
  <path class="st5" d="M360.34,528.3s33.39-44.26,50.47-47.37c17.08-3.11,38.05,14.75,38.05,14.75,0,0,20.19-14.75,36.5-9.32,16.31,5.44,56.68,41.93,56.68,41.93,0,0,20.19,80.76-77.65,76.87-97.84-3.88-104.05-76.87-104.05-76.87Z"/>
  <g>
    <path class="st3" d="M347.49,620.61h0s0,0-.01-.01c0,0,0,0,.01.01Z"/>
    <path class="st3" d="M325.13,614.62c-4.52,12.82-14.23,38.12-22.02,43.14-10.52,6.78-4.9,21.59-4.38,30.47.52,8.89,8.67,27.4,8.67,27.4L24.92,882.97h798.93l59.12-.16s-129.97-118.69-215.57-192.6c-7.88,11.92-19.76,22.91-49.72,23.78-60.43,1.75-61.89-24.52-61.89-24.52,0,0,50.07-16.43,40.87-42.59-1.69-4.81-3.28-9.55-4.64-14.22-64.45,32.15-194.64,1.59-244.53-12.04l-22.36-5.99Z"/>
  </g>
  <path class="st4" d="M383.19,395.41c-.51-1.43-1.13-2.73-1.85-3.92,1.29-1.32,1.44-3.42.26-4.89-11.09-13.82-26.91-21.89-45.91-23.48,1.18-8.52,4.98-14.66,5.29-15.15,1.1-1.72.6-4.01-1.12-5.11-1.72-1.1-4.01-.61-5.12,1.11-.18.29-4.52,7.13-6.16,16.91-.1.63-.2,1.28-.28,1.95-4.6.01-8.8.38-12.35.87,2.08-5.62,5.77-8.89,6.11-9.17,1.55-1.32,1.75-3.65.43-5.21-1.32-1.56-3.65-1.76-5.22-.45-.13.11-7.12,6.17-9.44,16.31-2.17.51-3.46.91-3.62.96-1.95.62-3.03,2.69-2.41,4.64.61,1.95,2.69,3.03,4.64,2.42.02,0,.25-.08.68-.19.25,5.63,2.13,12.06,6.85,19.11-6.81,4.58-11.96,10.49-9.5,17.27,5.88,16.19,10.68,20.37,45.15,17.75,0,0,41.75-8.62,33.56-31.72ZM314.54,371.41c3.64-.6,8.29-1.14,13.49-1.18.21,4.19,1.09,8.76,3.08,13.43-2.93,1.09-6.81,2.68-10.72,4.7-4.38-6.43-5.87-12.14-5.84-16.96ZM338.23,381.49c-1.71-3.75-2.55-7.46-2.8-10.96,11.55,1,21.51,4.56,29.82,10.59-10.53-2.37-22.32-.55-27.01.38Z"/>
  <path class="st4" d="M578.57,405.05c.06-.89-.19-1.81-.79-2.56-11.07-13.8-26.85-21.87-45.82-23.47.44-10.26,5.25-18.03,5.6-18.58,1.1-1.72.6-4.01-1.12-5.11-1.72-1.11-4.01-.61-5.12,1.11-.18.29-4.52,7.13-6.16,16.91-.28,1.66-.48,3.46-.56,5.37-4.9,0-9.35.42-13.06.95,1.52-7.74,6.68-12.32,7.09-12.68,1.55-1.32,1.75-3.65.44-5.21-1.32-1.56-3.65-1.76-5.22-.44-.14.12-8.73,7.56-10.01,19.77-2.07.49-3.29.87-3.45.92-1.95.62-3.03,2.69-2.41,4.64.61,1.95,2.7,3.03,4.64,2.42.02,0,.52-.16,1.4-.39.76,5.01,2.86,10.58,7.01,16.57-7.52,21.13,31.07,33.06,31.07,33.06,34.06,5.92,39.24,2.22,46.65-13.33,3.48-7.3-2.68-14.44-10.19-19.96ZM533.57,390.79c-.48-1.44-.84-2.87-1.1-4.27,8.69.86,16.49,3.16,23.32,6.91-4.94-1.33-13.65-3.19-22.22-2.64ZM524.94,386.13c.26,1.89.66,3.85,1.25,5.83-4.12,1.12-7.92,3.07-10.87,6.24-2.31-3.99-3.52-7.67-3.97-11,3.71-.59,8.39-1.08,13.59-1.07Z"/>
  <path class="st2" d="M347.49,620.61"/>
  <path class="st2" d="M343.77,616.97c1.21,1.2,2.45,2.41,3.7,3.63,0,0,0,0,0,0-1.26-1.22-2.49-2.43-3.71-3.63Z"/>
  <path class="st2" d="M340.25,613.45c.17.17.34.34.51.51-.17-.17-.34-.34-.51-.51Z"/>
</svg>